<mxfile host="app.diagrams.net" modified="2020-12-12T13:36:06.280Z" agent="5.0 (Windows NT 10.0; Win64; x64) AppleWebKit/537.36 (KHTML, like Gecko) Chrome/87.0.4280.88 Safari/537.36 Edg/87.0.664.57" etag="JaQMRXExREa9ZiNB106k" version="14.0.1" type="github">
  <diagram id="prtHgNgQTEPvFCAcTncT" name="Page-1">
    <mxGraphModel dx="1221" dy="588" grid="1" gridSize="10" guides="1" tooltips="1" connect="1" arrows="1" fold="1" page="1" pageScale="1" pageWidth="1169" pageHeight="827" math="0" shadow="0">
      <root>
        <mxCell id="0" />
        <mxCell id="1" parent="0" />
        <mxCell id="Hvq2gpMl7v8W7rDJ4bSN-7" style="edgeStyle=orthogonalEdgeStyle;rounded=0;orthogonalLoop=1;jettySize=auto;html=1;exitX=1;exitY=0.5;exitDx=0;exitDy=0;entryX=0;entryY=0.5;entryDx=0;entryDy=0;" edge="1" parent="1" source="Hvq2gpMl7v8W7rDJ4bSN-1" target="Hvq2gpMl7v8W7rDJ4bSN-3">
          <mxGeometry relative="1" as="geometry" />
        </mxCell>
        <mxCell id="Hvq2gpMl7v8W7rDJ4bSN-12" style="edgeStyle=orthogonalEdgeStyle;rounded=0;orthogonalLoop=1;jettySize=auto;html=1;entryX=0;entryY=0.5;entryDx=0;entryDy=0;" edge="1" parent="1" source="Hvq2gpMl7v8W7rDJ4bSN-1" target="Hvq2gpMl7v8W7rDJ4bSN-10">
          <mxGeometry relative="1" as="geometry">
            <Array as="points">
              <mxPoint x="350" y="610" />
            </Array>
          </mxGeometry>
        </mxCell>
        <mxCell id="Hvq2gpMl7v8W7rDJ4bSN-1" value="PASSENGER" style="rounded=0;whiteSpace=wrap;html=1;fillColor=#000000;fontColor=#FFFFFF;fontSize=15;" vertex="1" parent="1">
          <mxGeometry x="290" y="480" width="120" height="40" as="geometry" />
        </mxCell>
        <mxCell id="Hvq2gpMl7v8W7rDJ4bSN-9" style="edgeStyle=orthogonalEdgeStyle;rounded=0;orthogonalLoop=1;jettySize=auto;html=1;entryX=0;entryY=0.5;entryDx=0;entryDy=0;exitX=1;exitY=0.5;exitDx=0;exitDy=0;" edge="1" parent="1" source="Hvq2gpMl7v8W7rDJ4bSN-3" target="Hvq2gpMl7v8W7rDJ4bSN-5">
          <mxGeometry relative="1" as="geometry">
            <mxPoint x="595" y="500" as="sourcePoint" />
          </mxGeometry>
        </mxCell>
        <mxCell id="Hvq2gpMl7v8W7rDJ4bSN-3" value="WAIT" style="rhombus;whiteSpace=wrap;html=1;fillColor=#000000;fontColor=#FFFFFF;fontSize=15;" vertex="1" parent="1">
          <mxGeometry x="480" y="460" width="80" height="80" as="geometry" />
        </mxCell>
        <mxCell id="Hvq2gpMl7v8W7rDJ4bSN-11" style="edgeStyle=orthogonalEdgeStyle;rounded=0;orthogonalLoop=1;jettySize=auto;html=1;entryX=0.5;entryY=0;entryDx=0;entryDy=0;" edge="1" parent="1" source="Hvq2gpMl7v8W7rDJ4bSN-5" target="Hvq2gpMl7v8W7rDJ4bSN-10">
          <mxGeometry relative="1" as="geometry" />
        </mxCell>
        <mxCell id="Hvq2gpMl7v8W7rDJ4bSN-5" value="STATION" style="rounded=0;whiteSpace=wrap;html=1;fillColor=#000000;fontColor=#FFFFFF;fontSize=15;" vertex="1" parent="1">
          <mxGeometry x="635" y="480" width="120" height="40" as="geometry" />
        </mxCell>
        <mxCell id="Hvq2gpMl7v8W7rDJ4bSN-14" style="edgeStyle=orthogonalEdgeStyle;rounded=0;orthogonalLoop=1;jettySize=auto;html=1;exitX=1;exitY=0.5;exitDx=0;exitDy=0;entryX=0;entryY=0.5;entryDx=0;entryDy=0;" edge="1" parent="1" source="Hvq2gpMl7v8W7rDJ4bSN-10" target="Hvq2gpMl7v8W7rDJ4bSN-13">
          <mxGeometry relative="1" as="geometry" />
        </mxCell>
        <mxCell id="Hvq2gpMl7v8W7rDJ4bSN-10" value="ONBOARD" style="rhombus;whiteSpace=wrap;html=1;fillColor=#000000;fontColor=#FFFFFF;fontSize=15;" vertex="1" parent="1">
          <mxGeometry x="655" y="570" width="80" height="80" as="geometry" />
        </mxCell>
        <mxCell id="Hvq2gpMl7v8W7rDJ4bSN-16" style="edgeStyle=orthogonalEdgeStyle;rounded=0;orthogonalLoop=1;jettySize=auto;html=1;exitX=1;exitY=0.5;exitDx=0;exitDy=0;entryX=0;entryY=0.5;entryDx=0;entryDy=0;" edge="1" parent="1" source="Hvq2gpMl7v8W7rDJ4bSN-13" target="Hvq2gpMl7v8W7rDJ4bSN-15">
          <mxGeometry relative="1" as="geometry" />
        </mxCell>
        <mxCell id="Hvq2gpMl7v8W7rDJ4bSN-13" value="TRAIN" style="rounded=0;whiteSpace=wrap;html=1;fillColor=#000000;fontColor=#FFFFFF;fontSize=15;" vertex="1" parent="1">
          <mxGeometry x="825" y="590" width="80" height="40" as="geometry" />
        </mxCell>
        <mxCell id="Hvq2gpMl7v8W7rDJ4bSN-15" value="LEAVE" style="rhombus;whiteSpace=wrap;html=1;fillColor=#000000;fontColor=#FFFFFF;fontSize=15;" vertex="1" parent="1">
          <mxGeometry x="995" y="570" width="80" height="80" as="geometry" />
        </mxCell>
        <mxCell id="Hvq2gpMl7v8W7rDJ4bSN-28" style="rounded=0;orthogonalLoop=1;jettySize=auto;html=1;exitX=1;exitY=0.5;exitDx=0;exitDy=0;entryX=0;entryY=0.5;entryDx=0;entryDy=0;endArrow=none;endFill=0;" edge="1" parent="1" source="Hvq2gpMl7v8W7rDJ4bSN-17" target="Hvq2gpMl7v8W7rDJ4bSN-1">
          <mxGeometry relative="1" as="geometry" />
        </mxCell>
        <mxCell id="Hvq2gpMl7v8W7rDJ4bSN-17" value="INITIAL PASSENGER" style="rounded=0;whiteSpace=wrap;html=1;fillColor=#000000;fontColor=#FFFFFF;fontSize=15;" vertex="1" parent="1">
          <mxGeometry x="80" y="410" width="160" height="40" as="geometry" />
        </mxCell>
        <mxCell id="Hvq2gpMl7v8W7rDJ4bSN-19" value="GENERATED PASSENGER" style="rounded=0;whiteSpace=wrap;html=1;fillColor=#000000;fontColor=#FFFFFF;fontSize=15;" vertex="1" parent="1">
          <mxGeometry x="80" y="550" width="160" height="40" as="geometry" />
        </mxCell>
        <mxCell id="Hvq2gpMl7v8W7rDJ4bSN-20" value="" style="shape=umlActor;verticalLabelPosition=bottom;verticalAlign=top;html=1;outlineConnect=0;" vertex="1" parent="1">
          <mxGeometry x="342.5" y="440" width="15" height="30" as="geometry" />
        </mxCell>
        <mxCell id="Hvq2gpMl7v8W7rDJ4bSN-21" value="" style="shape=mxgraph.bpmn.shape;html=1;verticalLabelPosition=bottom;labelBackgroundColor=#ffffff;verticalAlign=top;align=center;perimeter=ellipsePerimeter;outlineConnect=0;outline=standard;symbol=timer;" vertex="1" parent="1">
          <mxGeometry x="573" y="440" width="40" height="40" as="geometry" />
        </mxCell>
        <mxCell id="Hvq2gpMl7v8W7rDJ4bSN-23" value="" style="shape=mxgraph.bpmn.shape;html=1;verticalLabelPosition=bottom;labelBackgroundColor=#ffffff;verticalAlign=top;align=center;perimeter=ellipsePerimeter;outlineConnect=0;outline=standard;symbol=timer;" vertex="1" parent="1">
          <mxGeometry x="755" y="630" width="40" height="40" as="geometry" />
        </mxCell>
        <mxCell id="Hvq2gpMl7v8W7rDJ4bSN-25" value="" style="shape=mxgraph.bpmn.shape;html=1;verticalLabelPosition=bottom;labelBackgroundColor=#ffffff;verticalAlign=top;align=center;perimeter=ellipsePerimeter;outlineConnect=0;outline=standard;symbol=timer;" vertex="1" parent="1">
          <mxGeometry x="930" y="630" width="40" height="40" as="geometry" />
        </mxCell>
        <mxCell id="Hvq2gpMl7v8W7rDJ4bSN-27" value="" style="endArrow=none;html=1;entryX=0;entryY=0.5;entryDx=0;entryDy=0;" edge="1" parent="1" target="Hvq2gpMl7v8W7rDJ4bSN-1">
          <mxGeometry width="50" height="50" relative="1" as="geometry">
            <mxPoint x="240" y="570" as="sourcePoint" />
            <mxPoint x="290" y="520" as="targetPoint" />
          </mxGeometry>
        </mxCell>
      </root>
    </mxGraphModel>
  </diagram>
</mxfile>
